<svg width="65" height="66" viewBox="0 0 65 66" fill="none" xmlns="http://www.w3.org/2000/svg">
<circle cx="32.5" cy="32.7341" r="32.5" fill="#0156FF"/>
<g clip-path="url(#clip0_1343_8150)">
<path d="M45.2047 21.2288C45.1293 21.041 44.9844 20.8894 44.8001 20.8057C44.6158 20.722 44.4063 20.7126 44.2152 20.7794C44.0242 20.8463 43.8662 20.9842 43.7742 21.1645C43.6823 21.3448 43.6633 21.5536 43.7214 21.7475C44.9291 25.2185 42.5319 27.8107 40.7041 29.1991L39.9657 28.1409C39.7174 27.786 39.1623 27.4909 38.7307 27.4857L34.5863 27.5039C34.08 27.5192 33.5873 27.671 33.1602 27.9433L20.948 36.5064C20.6639 36.7063 20.4707 37.0106 20.4105 37.3527C20.3503 37.6948 20.4281 38.0468 20.6269 38.3316L26.1766 46.272C26.5926 46.8635 27.2569 46.792 27.8497 46.3786L40.0619 37.8142C40.4129 37.5659 40.8185 37.0303 40.9615 36.6208L42.2589 32.5323C42.4019 32.1241 42.3148 31.5014 42.0665 31.1465L41.6167 30.5017C44.0711 28.6206 46.6191 25.2965 45.2047 21.2288ZM39.5224 33.3942C39.2974 33.5517 39.0436 33.6633 38.7755 33.7226C38.5074 33.782 38.2302 33.788 37.9597 33.7401C37.6893 33.6923 37.431 33.5917 37.1994 33.444C36.9679 33.2963 36.7678 33.1045 36.6104 32.8794C36.2918 32.4239 36.1669 31.8607 36.2632 31.3133C36.3595 30.7659 36.669 30.279 37.1239 29.9596C37.4805 29.7098 37.9063 29.5776 38.3416 29.5815C38.777 29.5855 39.2003 29.7254 39.5523 29.9817C39.1987 30.1949 38.9556 30.3197 38.9101 30.3392C38.749 30.416 38.6187 30.5453 38.5406 30.7059C38.4626 30.8665 38.4414 31.0488 38.4805 31.223C38.5196 31.3971 38.6168 31.5529 38.756 31.6646C38.8952 31.7764 39.0683 31.8376 39.2468 31.8381C39.3586 31.8381 39.473 31.8121 39.5809 31.7614C39.8331 31.6418 40.1035 31.5001 40.3856 31.3324C40.4505 31.7225 40.4039 32.123 40.2512 32.4877C40.0985 32.8525 39.8459 33.1667 39.5224 33.3942Z" fill="white"/>
</g>
<defs>
<clipPath id="clip0_1343_8150">
<rect width="26" height="26" fill="white" transform="translate(20 20.7024)"/>
</clipPath>
</defs>
</svg>
