<svg width="65" height="66" viewBox="0 0 65 66" fill="none" xmlns="http://www.w3.org/2000/svg">
<circle cx="32.5" cy="32.7341" r="32.5" fill="#0156FF"/>
<path d="M32.9111 20.6265C26.1059 20.6265 20.5693 26.163 20.5693 32.9682V38.0814C20.5693 39.3452 21.6764 40.3733 23.0377 40.3733H24.2719C24.5992 40.3733 24.9131 40.2433 25.1446 40.0118C25.376 39.7804 25.506 39.4664 25.506 39.1391V32.7918C25.506 32.4644 25.376 32.1505 25.1446 31.9191C24.9131 31.6876 24.5992 31.5576 24.2719 31.5576H23.1512C23.8374 26.7813 27.9472 23.0948 32.9111 23.0948C37.875 23.0948 41.9848 26.7813 42.671 31.5576H41.5504C41.223 31.5576 40.9091 31.6876 40.6777 31.9191C40.4462 32.1505 40.3162 32.4644 40.3162 32.7918V40.3733C40.3162 41.7346 39.2091 42.8417 37.8478 42.8417H35.3795V41.6075H30.4428V45.31H37.8478C40.5704 45.31 42.7845 43.0959 42.7845 40.3733C44.1458 40.3733 45.2529 39.3452 45.2529 38.0814V32.9682C45.2529 26.163 39.7164 20.6265 32.9111 20.6265Z" fill="white"/>
</svg>
