<svg width="33" height="32" viewBox="0 0 33 32" fill="none" xmlns="http://www.w3.org/2000/svg">
<path d="M14.5834 27.8334C15.1359 27.8334 15.6658 27.6139 16.0566 27.2232C16.4473 26.8325 16.6667 26.3026 16.6667 25.75C16.6667 25.1975 16.4473 24.6676 16.0566 24.2769C15.6658 23.8862 15.1359 23.6667 14.5834 23.6667C14.0309 23.6667 13.501 23.8862 13.1103 24.2769C12.7196 24.6676 12.5001 25.1975 12.5001 25.75C12.5001 26.3026 12.7196 26.8325 13.1103 27.2232C13.501 27.6139 14.0309 27.8334 14.5834 27.8334ZM7.29174 27.8334C7.84428 27.8334 8.37418 27.6139 8.76488 27.2232C9.15558 26.8325 9.37508 26.3026 9.37508 25.75C9.37508 25.1975 9.15558 24.6676 8.76488 24.2769C8.37418 23.8862 7.84428 23.6667 7.29174 23.6667C6.73921 23.6667 6.20931 23.8862 5.81861 24.2769C5.4279 24.6676 5.20841 25.1975 5.20841 25.75C5.20841 26.3026 5.4279 26.8325 5.81861 27.2232C6.20931 27.6139 6.73921 27.8334 7.29174 27.8334ZM20.873 13.1698C21.133 13.1614 21.3796 13.0522 21.5606 12.8653C21.7416 12.6784 21.8428 12.4284 21.8428 12.1682C21.8428 11.9081 21.7416 11.6581 21.5606 11.4712C21.3796 11.2843 21.133 11.1751 20.873 11.1667H19.674C18.7345 11.1667 17.922 11.8188 17.7178 12.7354L16.4126 18.6125C16.2084 19.5292 15.3959 20.1813 14.4563 20.1813H6.63133L5.12924 14.1709H14.8636C15.1212 14.1591 15.3644 14.0485 15.5425 13.8621C15.7206 13.6756 15.82 13.4277 15.82 13.1698C15.82 12.912 15.7206 12.664 15.5425 12.4776C15.3644 12.2911 15.1212 12.1805 14.8636 12.1688H5.12924C4.82473 12.1687 4.5242 12.238 4.25051 12.3715C3.97682 12.505 3.73716 12.6991 3.54976 12.9392C3.36236 13.1792 3.23215 13.4588 3.16903 13.7567C3.10591 14.0546 3.11154 14.363 3.1855 14.6584L4.68758 20.6667C4.79586 21.1002 5.046 21.4851 5.39821 21.7601C5.75042 22.0351 6.18447 22.1845 6.63133 22.1844H14.4563C15.368 22.1845 16.2524 21.8737 16.9636 21.3032C17.6748 20.7328 18.1701 19.9369 18.3678 19.0469L19.674 13.1698H20.873Z" fill="black"/>
<circle cx="25" cy="9" r="8" fill="#0156FF"/>
<path d="M22.5336 10.63C22.7602 10.45 22.8636 10.3667 22.8436 10.38C23.4969 9.84 24.0102 9.39667 24.3836 9.05C24.7636 8.70333 25.0836 8.34 25.3436 7.96C25.6036 7.58 25.7336 7.21 25.7336 6.85C25.7336 6.57667 25.6702 6.36333 25.5436 6.21C25.4169 6.05667 25.2269 5.98 24.9736 5.98C24.7202 5.98 24.5202 6.07667 24.3736 6.27C24.2336 6.45667 24.1636 6.72333 24.1636 7.07H22.5136C22.5269 6.50333 22.6469 6.03 22.8736 5.65C23.1069 5.27 23.4102 4.99 23.7836 4.81C24.1636 4.63 24.5836 4.54 25.0436 4.54C25.8369 4.54 26.4336 4.74333 26.8336 5.15C27.2402 5.55667 27.4436 6.08667 27.4436 6.74C27.4436 7.45333 27.2002 8.11667 26.7136 8.73C26.2269 9.33667 25.6069 9.93 24.8536 10.51H27.5536V11.9H22.5336V10.63Z" fill="white"/>
</svg>
