<svg width="20" height="20" viewBox="0 0 20 20" fill="none" xmlns="http://www.w3.org/2000/svg">
<path d="M17.1051 2.27661H2.89423C2.55247 2.27661 2.27637 2.55272 2.27637 2.89447V17.1053C2.27637 17.4471 2.55247 17.7232 2.89423 17.7232H17.1051C17.4468 17.7232 17.723 17.4471 17.723 17.1053V2.89447C17.723 2.55272 17.4468 2.27661 17.1051 2.27661ZM15.321 6.78508H14.0872C13.1199 6.78508 12.9326 7.24462 12.9326 7.92041V9.40907H15.2418L14.9406 11.7396H12.9326V17.7232H10.5248V11.7415H8.51099V9.40907H10.5248V7.69064C10.5248 5.6961 11.7432 4.60905 13.5234 4.60905C14.3768 4.60905 15.1086 4.67276 15.3229 4.70173V6.78508H15.321Z" fill="white"/>
</svg>
