<svg width="16" height="16" viewBox="0 0 16 16" fill="none" xmlns="http://www.w3.org/2000/svg">
<path d="M7.9996 5.39651C6.56601 5.39651 5.39609 6.56644 5.39609 8.00003C5.39609 9.43362 6.56601 10.6035 7.9996 10.6035C9.4332 10.6035 10.6031 9.43362 10.6031 8.00003C10.6031 6.56644 9.4332 5.39651 7.9996 5.39651ZM15.8082 8.00003C15.8082 6.92191 15.818 5.85355 15.7574 4.77737C15.6969 3.52737 15.4117 2.418 14.4977 1.50394C13.5816 0.587922 12.4742 0.304719 11.2242 0.244172C10.1461 0.183625 9.07773 0.193391 8.00156 0.193391C6.92343 0.193391 5.85507 0.183625 4.7789 0.244172C3.5289 0.304719 2.41953 0.589875 1.50546 1.50394C0.589448 2.41995 0.306245 3.52737 0.245698 4.77737C0.185151 5.8555 0.194917 6.92386 0.194917 8.00003C0.194917 9.0762 0.185151 10.1465 0.245698 11.2227C0.306245 12.4727 0.591401 13.5821 1.50546 14.4961C2.42148 15.4121 3.5289 15.6953 4.7789 15.7559C5.85703 15.8164 6.92539 15.8067 8.00156 15.8067C9.07968 15.8067 10.148 15.8164 11.2242 15.7559C12.4742 15.6953 13.5836 15.4102 14.4977 14.4961C15.4137 13.5801 15.6969 12.4727 15.7574 11.2227C15.8199 10.1465 15.8082 9.07815 15.8082 8.00003ZM7.9996 12.0059C5.78281 12.0059 3.99375 10.2168 3.99375 8.00003C3.99375 5.78323 5.78281 3.99417 7.9996 3.99417C10.2164 3.99417 12.0055 5.78323 12.0055 8.00003C12.0055 10.2168 10.2164 12.0059 7.9996 12.0059ZM12.1695 4.76566C11.6519 4.76566 11.234 4.34769 11.234 3.83011C11.234 3.31253 11.6519 2.89456 12.1695 2.89456C12.6871 2.89456 13.1051 3.31253 13.1051 3.83011C13.1052 3.95301 13.0811 4.07473 13.0342 4.18831C12.9872 4.30188 12.9183 4.40508 12.8314 4.49198C12.7445 4.57889 12.6413 4.64779 12.5277 4.69476C12.4142 4.74172 12.2924 4.76581 12.1695 4.76566Z" fill="white"/>
</svg>
