<svg width="20" height="24" viewBox="0 0 20 24" fill="none" xmlns="http://www.w3.org/2000/svg">
<path d="M10 12C8.625 12 7.5 10.92 7.5 9.6C7.5 8.28 8.625 7.2 10 7.2C11.375 7.2 12.5 8.28 12.5 9.6C12.5 10.92 11.375 12 10 12ZM17.5 9.84C17.5 5.484 14.1875 2.4 10 2.4C5.8125 2.4 2.5 5.484 2.5 9.84C2.5 12.648 4.9375 16.368 10 20.808C15.0625 16.368 17.5 12.648 17.5 9.84ZM10 0C15.25 0 20 3.864 20 9.84C20 13.824 16.6625 18.54 10 24C3.3375 18.54 0 13.824 0 9.84C0 3.864 4.75 0 10 0Z" fill="#0156FF"/>
</svg>
